<svg height="32" viewBox="0 0 32 32" width="32" xmlns="http://www.w3.org/2000/svg"><g fill="none" fill-rule="evenodd" transform="translate(4 1)"><path d="m24.6007574 7.85387976c.1847269 5.26681534-7.1143325 8.52125724-11.1267033 9.51012174-5.00511807 1.2335143-11.51620838-.8254795-12.91723187-6.4990466-.52773022-2.13640912-.33489751-3.94690362.37201355-5.43875451 3.62201262-7.64530809 23.32209232-7.5426578 23.67192162 2.42767937z" fill="#dbad21"/><path d="m1.57315537 16.2993487c5.4533655-8.00684231 21.02960263-2.2054793 23.04774833 4.1209705 2.0402109 6.3963462-4.5377525 9.280259-10.5639952 9.5573778-10.02371561.4609053-17.3127561-6.2944066-12.57814302-13.5369108.03064607-.0472829.06210936-.0941546.09438989-.1414375z" fill="#5c8e8a"/><path d="m19.3789269 14.9910932-.2526442.1434817c-1.9531609 1.0888853-4.061116 1.8372907-5.6522286 2.2294266-3.58213793.88282-7.9356639.0791538-10.63518569-2.5290655 4.14068611-3.7875761 11.48424239-2.70844 16.54005849.1561572z" fill="#816c2c"/></g></svg>