<svg class="arch icon" height="150" viewBox="0 0 150 150" width="150" xmlns="http://www.w3.org/2000/svg" role="presentation"><g fill="{{ colour }}"><path d="m84.1507001 81.6475119c4.1977459 4.532381 2.516895 16.2925141 2.516895 24.0171131s-6.2657878 14.335375-14.4348247 14.335375c-3.5110591 0-7.3468486-1.344425-9.1833392-8.168636-1.8364907-6.82421-.8829394-10.829216 0-22.1690552.6685112-8.6133013 2.010822-9.9515129 5.5057077-10.7056507 6.4203701-1.3854083 11.3978153-1.8415273 15.5955612 2.6908538z" transform="matrix(1 0 0 -1 0 198)"/><path d="m17.8884143 44.2558028c1.4865879-13.2226337 6.3697624-18.4851876 18.9558825-16.7460558 3.7753218.5204489 6.4799892 2.1338279 8.1552692 4.9198494 1.210379 2.0128827 1.6908623 3.9916481 2.2526095 7.9589747.0249256.1760364.2222273 1.592872.2834195 2.0193041.230481 1.6037438.2106397 2.5206889-.0313371 7.7951494-.2769389 6.036543-.2565756 9.76881.2681059 13.7798411.3562538 2.7234534.9384994 5.1754484 1.7767927 7.356358 3.2906176 8.5608927 13.6876356 15.3361868 23.2013469 16.3779507 12.6118021 1.3810089 26.7426798-7.6266124 28.1416576-15.661696 1.013091-5.8187295 1.142314-8.3391328.902015-11.4059663-.043408-.5539985-.054508-.6945649-.061012-.7863246l-.003573-.052116c-.002309-.0347287-.00477-.0733165-.009155-.1390992-.233099-3.4965137.299469-6.6943418 2.567537-14.1659149 1.529704-5.0464334 4.0652-9.2066907 7.380777-11.5762253 4.195889-2.9986655 9.218408-2.8561134 13.845295.5926672 3.554956 2.6497869 5.652903 5.7943001 6.613496 9.6551568.694672 2.795546.771232 4.9104041.643551 10.4654802-.029588 1.2872906-.044694 2.0921415-.049809 2.8664491l-.001826.4220365-.000221.2138392c0 9.1163377-5.671213 30.1793538-9.688749 35.640544-6.737249 9.1581989-18.196287 18.3141309-28.3147173 23.2237529-15.6457204 7.594488-42.652083 3.400504-56.065812-8.295867-.1933929-.168692-2.9495968-2.55421-4.7621012-4.134554l-.5283224-.461257c-.3268409-.28581-.597758-.523772-.7816961-.687121-2.0458525-1.816852-3.5397964-3.242605-4.8411489-4.6545187-4.9974147-5.4219868-7.23651-10.9141226-8.5301773-21.040406-1.2499916-9.7921728-1.5414787-12.0324246-1.6890579-13.870106l-.0136461-.1740289c-.0066316-.0866345-.0129955-.1728709-.0191796-.2594811l-.0121548-.1739475c-.0019946-.0291505-.0039757-.0583998-.0059466-.0877764l-.0117291-.1780159c-.0330334-.5100029-.0650033-1.073324-.111915-1.8304357-.3319262-5.3569781-.1816742-10.4588163.5455316-16.90644z" transform="matrix(1 0 0 -1 0 148.0244)"/></g></svg>