<svg class="bust" height="268" viewBox="0 0 223 268" width="223" xmlns="http://www.w3.org/2000/svg" role="presentation"><g fill="none" fill-rule="evenodd"><path d="m81.8908669 131.071985c6.4905622 6.367805 15.3493025 9.697709 24.0618591 12.385572 20.831196 6.431285 43.191841 10.191029 64.448798 5.326758 21.256956-4.862457 41.152576-19.783545 47.001757-40.642598 2.203721-7.858645 2.36635-16.1181122 2.514362-24.272386.239376-13.1908438.350841-26.9729449-5.576914-38.7817698-3.669214-7.3072886-9.450785-13.3812795-15.751308-18.6300491-12.97016-10.8022364-28.525948-18.48132792-44.98442-22.39160691-7.64176-1.813673-14.523364-2.31968777-22.26197-1.9551395-9.282674.43346785-17.134573-.75086062-26.174216 2.65884462-8.937314 3.36980444-16.8257591 9.07017869-23.7822823 15.58126479-11.5229407 10.7859133-21.0084442 24.6061016-22.9837532 40.2055031-2.0831197 16.4427594 4.2868409 32.6533687 10.5343725 48.0224338 3.2799997 8.069031 6.7189744 16.377467 12.9537149 22.493173z" fill="#dbad21"/><path d="m101.18583 124.167573c-18.083873-1.797175-34.0401005 11.172965-47.0354474 23.950391-12.993119 12.775185-25.3668815 26.186777-37.0655901 40.169789-5.8838867 7.031842-8.21410823 18.964408-4.7285733 27.561794 6.3178413 15.583524 40.9602138 38.206693 79.7764926 41.71904 40.8307892 3.694634 127.2235072 3.694634 115.3997472-30.321113-19.248511-55.375998-55.730945-80.98943-83.831461-95.050873-7.171613-3.587628-14.543738-7.235761-22.515168-8.029028z" fill="#db592b" transform="matrix(-1 0 0 1 219.3562 0)"/><path d="m165.205837 148.117964 1.450599 1.43335c-20.125392 3.647789-41.092337-.039072-60.70371-6.093757-6.0959818-1.880638-12.2635277-4.075586-17.6414021-7.40549 2.4983918-1.377454 4.9515214-2.658326 7.3438972-3.855466l1.306228-.652314c6.7611779-3.367026 13.7206269-6.631523 21.2089399-7.376714 18.083873-1.797175 34.040101 11.172965 47.035448 23.950391z" fill="#b54a24"/></g></svg>