<svg class="bust" height="268" viewBox="0 0 223 268" width="223" xmlns="http://www.w3.org/2000/svg" role="presentation"><g fill="none" fill-rule="evenodd"><path d="m68.937152 108.578812c3.2799997 8.069031 6.7189744 16.377467 12.9537149 22.493173 6.4905622 6.367805 15.3493025 9.697709 24.0618591 12.385572 20.831196 6.431285 43.191841 10.191029 64.448798 5.326758 21.256956-4.862457 41.152576-19.783545 47.001757-40.642598 2.203721-7.858645 2.36635-16.1181122 2.514362-24.272386.239376-13.1908438.350841-26.9729449-5.576914-38.7817698-3.669214-7.3072886-9.450785-13.3812795-15.751308-18.6300491-12.97016-10.8022364-28.525948-18.48132792-44.98442-22.39160691-7.64176-1.813673-14.523364-2.31968777-22.26197-1.9551395-9.282674.43346785-17.134573-.75086062-26.174216 2.65884462-8.937314 3.36980444-16.8257591 9.07017869-23.7822823 15.58126479-11.5229407 10.7859133-21.0084442 24.6061016-22.9837532 40.2055031-2.0831197 16.4427594 4.2868409 32.6533687 10.5343725 48.0224338" fill="#db592b"/><path d="m119.344779 132.196601c-7.171614-3.587628-14.543738-7.235761-22.5151683-8.029028-18.0838729-1.797175-34.0401004 11.172965-47.0354473 23.950391-12.993119 12.775185-25.3668816 26.186777-37.0655901 40.169789-5.88388668 7.031842-11.95491708 16.031166-8.92051583 24.698841 2.25463588 6.444734 8.79129763 10.162333 14.83336533 13.27938 18.195268 9.384753 36.5353496 18.480433 55.0157889 27.282561 14.840049 7.069936 30.7584023 14.119705 47.0577263 12.100684 8.354629-1.03304 16.21912-4.410027 23.954392-7.751161 11.663062-5.035229 23.328352-10.072699 34.991415-15.110169 8.726688-3.769139 17.869994-7.860963 23.515495-15.540415 37.669352-51.239674-55.730945-80.98943-83.831461-95.050873" fill="#dbad21" transform="matrix(-1 0 0 1 215 0)"/><path d="m165.205837 148.117964 1.826697 1.805596c-20.264661 3.851646-41.412623.156752-61.178781-5.955758-6.402045-1.978309-12.8832934-4.30505-18.4392717-7.938929l1.5333317-.685178c2.2558086-1.013635 4.3093703-1.96385 6.1148373-2.852977l2.8251228-1.406234c6.4707419-3.199746 13.1358169-6.205706 20.2826159-6.916911 18.083873-1.797175 34.040101 11.172965 47.035448 23.950391z" fill="#b54a24"/></g></svg>