<svg class="bust" height="268" viewBox="0 0 223 268" width="223" xmlns="http://www.w3.org/2000/svg"><g fill="none" fill-rule="evenodd"><path d="m68.937152 108.578812c3.2799997 8.069031 6.7189744 16.377467 12.9537149 22.493173 6.4905622 6.367805 15.3493025 9.697709 24.0618591 12.385572 20.831196 6.431285 43.191841 10.191029 64.448798 5.326758 21.256956-4.862457 41.152576-19.783545 47.001757-40.642598 2.203721-7.858645 2.36635-16.1181122 2.514362-24.272386.239376-13.1908438.350841-26.9729449-5.576914-38.7817698-3.669214-7.3072886-9.450785-13.3812795-15.751308-18.6300491-12.97016-10.8022364-28.525948-18.48132792-44.98442-22.39160691-7.64176-1.813673-14.523364-2.31968777-22.26197-1.9551395-9.282674.43346785-17.134573-.75086062-26.174216 2.65884462-8.937314 3.36980444-16.8257591 9.07017869-23.7822823 15.58126479-11.5229407 10.7859133-21.0084442 24.6061016-22.9837532 40.2055031-2.0831197 16.4427594 4.2868409 32.6533687 10.5343725 48.0224338" fill="#db592b"/><path d="m29.3651446 45.2077234c4.2576692-13.5975532 19.3818186-21.464025 31.7464571-26.8695312 11.9538531-5.225961 28.237867-1.2951191 37.2364822 7.8497143 8.5443351 8.6851977 11.6058941 22.0529331 8.4210991 33.7616712-3.187211 11.7111321-12.2510683 21.5262674-23.4389276 26.4481986-13.0508917 5.7382632-29.199588 4.6921134-40.7305739-3.6507515-11.5309859-8.342865-17.4656258-24.0303238-13.2345369-37.5393014" fill="#b0aba6"/><path d="m98.3039061 26.261868c8.5834429 8.6751311 11.6590149 22.0273726 8.4596439 33.7225397-3.201799 11.6975583-12.3071431 21.5013173-23.5462103 26.4175437-6.6782159 2.9195358-14.1638738 4.0808136-21.432598 3.4162042-2.8966848-9.4228721-4.6112782-19.0510824-3.3820001-28.7601913 1.9751634-15.6079072 11.4599675-29.4356311 22.9820587-40.2274256 1.0281047-.9628693 2.0765659-1.9080188 3.1457611-2.8305387 5.2736008 1.7308137 10.1208699 4.5712388 13.7733447 8.261868z" fill="#9d3d1b"/><g transform="translate(3 124)"><path d="m116.344779 8.1966013c-7.171614-3.58762871-14.543738-7.23576084-22.5151683-8.0290279-18.0838729-1.79717566-34.0401004 11.1729649-47.0354473 23.9503908-12.993119 12.7751851-25.3668816 26.1867765-37.06559006 40.169789-5.88388672 7.031842-11.95491713 16.0311654-8.92051587 24.6988406 2.25463588 6.4447346 8.79129761 10.1623336 14.83336533 13.2793802 18.195268 9.384753 36.5353496 18.480433 55.0157889 27.282561 14.840049 7.069936 30.7584023 14.119705 47.0577263 12.100684 8.354629-1.03304 16.21912-4.410027 23.954392-7.751161 11.663062-5.035229 23.328352-10.072699 34.991415-15.110169 8.726688-3.769139 17.869994-7.860963 23.515495-15.540415 37.669352-51.2396741-55.730945-80.9894297-83.831461-95.0508727" fill="#dbad21" transform="matrix(-1 0 0 1 209 0)"/><path d="m162.205837 24.1179642 1.826697 1.8055954c-20.264661 3.8516466-41.412623.1567519-61.178781-5.9557575-6.402045-1.9783089-12.8832934-4.3050496-18.4392717-7.9389294l1.5333317-.6851777c2.2558086-1.013635 4.3093703-1.96385007 6.1148373-2.85297728l2.8251228-1.40623339c6.4707419-3.19974623 13.1358169-6.20570598 20.2826159-6.91691093 18.083873-1.79717566 34.040101 11.1729649 47.035448 23.9503908z" fill="#b54a24"/></g></g></svg>