<svg height="150" viewBox="0 0 150 150" width="150" xmlns="http://www.w3.org/2000/svg" role="presentation"><path d="m19.7092136 101.119991c2.6118517 6.444394 5.3502945 13.07999 10.3149952 17.964346 5.1684107 5.085697 12.2225928 7.74515 19.1603692 9.891833 16.5878045 5.136395 34.393503 8.139144 51.320339 4.254256 16.926836-3.883439 32.769644-15.800281 37.427325-32.459525 1.754815-6.2763673 1.884316-12.8728542 2.002177-19.3853279.190614-10.5349692.279374-21.5421507-4.440875-30.9733598-2.921782-5.8360224-7.525625-10.6870621-12.542709-14.8790325-10.32809-8.6272895-22.715106-14.7602552-35.8209267-17.8832297-6.0851051-1.4485039-11.5649009-1.8526365-17.7271247-1.5614872-7.3917585.3461924-13.6441967-.5996807-20.8424308 2.1235068-7.1167502 2.6913203-13.3982898 7.2439682-18.9377434 12.4440973-9.175675 8.614253-16.7289463 19.651853-18.3018776 32.1104354-1.65878046 13.1321367 3.4135955 26.078865 8.3884818 38.3534876m33.7071586-26.6971673c2.5665389-8.1722669 11.6834327-12.9000959 19.136883-16.1488597 7.2058274-3.1408554 17.0218918-.7783796 22.4462907 4.7177576 5.1505571 5.2198915 6.9960761 13.2540355 5.0762701 20.2911054-1.9212626 7.0385087-7.3849898 12.9375041-14.1290733 15.8956345-7.8671262 3.4487545-17.6016208 2.8200075-24.5525422-2.1941385-6.9509214-5.0141461-10.5283445-14.4424674-7.9778283-22.5614993" fill="currentColor" fill-rule="evenodd"/></svg>