<svg class="dumbell icon" height="150" viewBox="0 0 150 150" width="150" xmlns="http://www.w3.org/2000/svg" role="presentation"><path d="m60.7119783 71.5271643c-9.2555304-2.0050596-18.5436062-4.6014244-24.9367914-10.4012105-7.3197338-6.6425509-10.2470495-14.2835434-5.1889366-22.2880305 2.7922805-4.4236259 7.8127537-10.6117984 13.1361964-12.8236113 5.3276543-2.208257 11.1606988-3.3888389 16.9895316-4.3347267 9.4044681-1.5290669 18.7078581 0 26.8867551 0 8.1788969 0 20.4051266 3.7551036 26.2592286 10.1558486 5.854103 6.4007449 7.631391 15.6996048 2.977591 22.765316-3.584059 5.4513011-9.808781 9.9780502-16.581008 12.4601168-2.8512431 1.045455-9.8677427 2.6634211-12.1293636 4.4662976-1.3098027 1.045455-.2484835 6.2517529 1.6130369 7.642137 1.600402 1.1948057 3.9167735 1.2943728 6.039412 1.4899511 6.6290337.6116268 13.1317207 2.8092159 18.0466397 6.6141031 4.914919 3.8048873 8.128358 9.2704122 8.174685 14.8995115.063174 7.218618-8.384954 14.635012-14.971872 19.236437-8.2547056 5.774894-17.984596 8.225254-28.6946552 8.559516-10.7142708.334261-18.9765797-2.047178-28.7390324-5.788058-5.5971957-2.147806-11.0175049-4.853898-15.140646-8.705013-4.1231412-3.851115-6.8480363-8.978823-6.40582-14.15987.4674859-5.4690813 4.4432216-10.4474384 9.6950674-13.6762586 5.2476342-3.2288202 13.590783-5.8886853 20.0176608-6.6923344 4.9949392-.6258506 7.1575457-3.4031753 7.3419965-5.447286.2053548-2.2757727-1.4787659-3.3422346-4.3896758-3.9728357z" fill="{{ colour }}" fill-rule="evenodd"/></svg>