<svg height="268" viewBox="0 0 223 268" width="223" xmlns="http://www.w3.org/2000/svg" role="presentation"><g fill="none" fill-rule="evenodd" transform="translate(28 20)"><path d="m92.9644884 6.55807264c-5.730428-2.87044945-11.6210731-5.78930748-17.9905889-6.42399773-14.4497932-1.43791409-27.1995061 8.93945093-37.5833479 19.16262569-10.3820616 10.2213818-20.2692307 20.9519502-29.61700257 32.1397106-4.70147886 5.6261527-9.55249359 12.8264806-7.12787632 19.7614578 1.80155116 5.1564101 7.02462537 8.1308483 11.85249769 10.6247866 14.5388026 7.5087085 29.1933176 14.7861316 43.9599844 21.8286834 11.8578382 5.656632 24.5772879 11.297128 37.6011498 9.681716 6.6757084-.826532 12.9597754-3.528448 19.1405914-6.201677 9.319288-4.02867 18.640357-8.059132 27.959646-12.0895945 6.973-3.0156752 14.278895-6.2895294 18.789894-12.4338332 30.099434-40.9966877-44.531425-64.7993653-66.9849476-76.04987766" fill="#5c7a77"/><path d="m118.431914 218.29082-.589037.489934-.598772.479958c-9.434242 7.472813-21.3590266 12.703472-32.4689013 7.872934-11.4157185-4.965061-20.7413715-13.634626-29.6447221-21.496425l-4.2356842-3.728904c-10.9224361-9.61865-21.7866867-19.298556-31.96992-29.559243l-.6093535-.616763c-5.5820812-5.678062-11.00666965-12.03691-11.58385358-19.889163-.66904196-9.10329 5.26931528-17.912818 11.42204048-25.926843l1.1545874-1.493185.2883344-.370297c17.8205331-22.864531 53.7309021-56.8687587 77.6142508-25.0631886 10.3141576 13.7359256 20.3377726 27.6813736 29.4417216 42.1633516l1.182205 1.892024c6.569885 10.579126 23.547971 30.759139 19.645084 44.478058-1.492678 5.245189-6.399194 9.281994-10.720552 13.255622-5.74696 5.284299-10.89675 11.099083-16.801387 16.225439-.309348.268752-.628707.527477-.94256.791717z" fill="#db592b"/><path d="m97.2903102 98.9480903c2.8817228 3.8492017 5.7407048 7.7148517 8.5631518 11.6041417-3.830534 1.464894-7.7401292 2.662512-11.7941574 3.166155-13.0238619 1.620904-25.7433116-4.038769-37.6011498-9.714634-3.8596827-1.847027-7.7117034-3.710155-11.5559984-5.5893188 17.15093-13.2799223 37.2060044-19.7448329 52.3881538.5336561z" fill="#883c20"/></g></svg>