<svg height="268" viewBox="0 0 223 268" width="223" xmlns="http://www.w3.org/2000/svg" role="presentation"><g fill="none" fill-rule="evenodd"><path d="m207.845582.07408315c-29.088988 3.82507543-60.280339 11.44521625-66.314668 44.79473635-4.786818 26.4538207 21.093174 33.3243116 43.048394 31.1173757 23.860355-2.3989999 35.763557-23.1923332 37.741229-45.3121088.863846-9.6698243 3.646015-32.12631218-14.474955-30.60000325" fill="#eae6df"/><path d="m145.09558 113.21931c-11.275549-18.1482511-23.78602-35.5786631-36.67536-52.735984-28.6028132-38.0724949-71.6092431 2.6318775-92.9511989 30.0016037-7.93706628 10.1781933-16.27098583 21.5177753-15.40714048 33.2660923.71637418 9.741248 7.66790138 17.562456 14.60264328 24.546385 13.4792246 13.575326 27.9547789 26.30137 42.4195426 39.01781.0863246.076225.1738481.153651.2601727.229876 13.8095361-11.373792 30.6338385-21.168458 48.3297798-23.162323 20.964285-2.361787 22.88261 21.705638 28.859388 38.316176.375872-.316305.758338-.626009 1.128814-.947716 7.071423-6.136446 13.238835-13.096967 20.121422-19.422476 5.175279-4.756586 11.051346-9.588797 12.838984-15.867491 4.674117-16.422076-15.65892-40.57833-23.527047-53.241953" fill="#db592b"/><path d="m93.5268903 213.876773c-13.9624025-6.070424-25.3140858-16.76539-36.1825912-26.33198-1.9435021 1.600734-3.8282556 3.232678-5.6464673 4.879027-15.5318315 14.060889-31.4886917 32.251754-27.2042345 47.812543 2.0202351 7.336846 8.5407388 14.089698 21.7268196 19.548518 19.086726 7.901635 42.5604195 10.211805 62.8275141 6.458153 13.039809-2.415205 28.121434-5.281161 34.275058-18.826477 6.50132-14.309972-2.95362-29.624078-8.215823-43.180798-.196029-.504168-.386662-1.01734-.573699-1.537113-.466992.394332-.928589.793465-1.404573 1.179393-11.406835 9.247884-26.013674 15.903503-39.6020037 9.998734" fill="#5c7a77"/><path d="m105.673779 164.38295c-17.6959411 1.993865-34.519644 11.787931-48.3291801 23.162323 10.8685053 9.56659 22.2201886 20.261556 36.1825911 26.33138 13.588329 5.905369 28.194569-.75085 39.602004-9.998734.475984-.385928.936981-.785061 1.404573-1.178793-5.977378-16.610538-7.895702-40.677963-28.859988-38.316176" fill="#883c20"/></g></svg>