<svg height="150" viewBox="0 0 150 150" width="150" xmlns="http://www.w3.org/2000/svg" role="presentation"><path d="m117.841546 9.01761113c-4.469049-2.3819159-9.814106-2.6398005-14.554858-.85336357-10.0951783 3.80731444-15.2153777 14.48373664-15.9461655 24.83663104-.4450311 6.26894.4871919 12.5097473 1.8316541 18.6755335-4.2676136-8.7164993-14.9530435-14.5165583-24.4532853-11.7079606-11.4209023 3.3759438-17.5248545 18.1222538-12.6014057 28.7658544-4.0427558-5.9454121-13.1120202-7.8303141-19.8015397-4.6794332-7.4437299 3.5072305-11.8940405 11.5907404-13.1963419 19.7164496-1.3069859 8.130398-8.2354168 50.8444387-5.4762242 54.6283097 5.1529911 7.066038 117.0525362 4.112087 124.0465512 5.593751.168643.03751.323233-.089087.310069-.262573-3.767258-45.8237487-7.533626-70.6781093-11.299994-116.5018576-.562145-6.864419-1.26951-14.1742751-8.85846-18.21134127z" fill="{{ colour }}" fill-rule="evenodd"/></svg>