<svg class="logo-icon" height="375" viewBox="0 0 469 375" width="469" xmlns="http://www.w3.org/2000/svg" role="presentation"><g fill="none" fill-rule="evenodd"><path d="m460.349739 146.088061c3.460526 97.966719-133.274207 158.501782-208.438751 176.895404-93.761873 22.944292-215.7354257-15.354537-241.98107808-120.887145-9.88607551-39.738815-6.27370192-73.415372 6.96900388-101.164919 67.8518844-142.2084705 436.8974042-140.299098 443.4508252 45.15666z" fill="#dbad21"/><path d="m29.5123947 304.29908c102.3051373-148.850595 394.5153463-41.000795 432.3757593 76.61059 38.274355 118.910789-85.128237 172.523952-198.18055 177.675708-188.0449054 8.568425-324.7873049-117.015689-235.9659636-251.656915.5749202-.879009 1.1651716-1.750374 1.7707543-2.629383z" fill="#5c8e8a"/><path d="m361.078811 279.671215-.742509.428603c-37.519024 21.359314-78.585234 35.967289-109.326939 43.49971-66.614586 16.321877-147.504431 1.61497-198.0035341-46.282413l-.0015606-.010679c77.0739017-70.158683 213.6459057-50.471519 308.0745427 2.364779z" fill="#816c2c"/></g></svg>