<svg height="60" viewBox="0 0 250 60" width="250" xmlns="http://www.w3.org/2000/svg" role="presentation"><g fill="none" fill-rule="evenodd"><path d="m69.7529069 46.2355677h6.7274887c.8301714 0 1.542362-.2961967 2.1365718-.88859.5830146-.5812323.8749525-1.2912457.8749525-2.1300404 0-.826775-.2919379-1.5307787-.8749525-2.1128695-.5942098-.5923933-1.3064004-.88859-2.1365718-.88859h-6.7274887zm0 13.414704h-4.6425872v-24.0623302h11.3700759c2.1081531 0 3.9140343.7486478 5.4167823 2.246802 1.4906917 1.4869931 2.2364681 3.2813439 2.2364681 5.3821938 0 1.8226827-.5778476 3.4375984-1.7318203 4.8464643-1.1333045 1.3865438-2.5740481 2.2639728-4.3230918 2.6322869l6.7447122 8.9545832h-5.8025882l-6.6103691-8.7863092h-2.6575819zm33.2886681-6.7910598c1.457106-1.45351 2.18652-3.1972069 2.18652-5.2319492 0-2.0459033-.729414-3.7896002-2.18652-5.2319491-1.446772-1.4526515-3.1958155-2.1798358-5.2479923-2.1798358-2.0409816 0-3.7900254.7271843-5.2479924 2.1798358-1.4467717 1.4423489-2.1692964 3.1860458-2.1692964 5.2319491 0 2.0347423.7225247 3.7784392 2.1692964 5.2319492 1.457967 1.442349 3.2070108 2.1626649 5.2479924 2.1626649 2.0521768 0 3.8012203-.7203159 5.2479923-2.1626649zm6.828246-5.2319492c0 3.3199783-1.177224 6.1540223-3.531673 8.5012736-2.35531 2.3481097-5.203212 3.5217354-8.5445653 3.5217354-3.3301586 0-6.1728929-1.1736257-8.5273417-3.5217354-2.35531-2.3472513-3.5325344-5.1812953-3.5325344-8.5012736 0-3.3311393 1.1772244-6.1703345 3.5325344-8.5184443 2.3544488-2.3472513 5.1971831-3.5208769 8.5273417-3.5208769 3.3413533 0 6.1892553 1.1736256 8.5445653 3.5208769 2.354449 2.3481098 3.531673 5.187305 3.531673 8.5184443zm6.830829 7.3946141h2.775563c2.051316 0 3.806388-.7203159 5.264355-2.1626649 1.446772-1.45351 2.169296-3.1972069 2.169296-5.2319492 0-2.0459033-.722524-3.7896002-2.169296-5.2319491-1.457967-1.4526515-3.213039-2.1798358-5.264355-2.1798358h-2.775563zm2.775563 4.6283949h-7.41815v-24.0623302h7.41815c3.341354 0 6.189255 1.1736256 8.543704 3.5208769 2.35531 2.3481098 3.532535 5.187305 3.532535 8.5184443 0 3.3199783-1.177225 6.1540223-3.532535 8.5012736-2.354449 2.3481097-5.20235 3.5217354-8.543704 3.5217354zm18.903623-13.414704h6.727489c.830171 0 1.541501-.2961967 2.136572-.88859.583015-.5812323.874091-1.2912457.874091-2.1300404 0-.826775-.291076-1.5307787-.874091-2.1128695-.595071-.5923933-1.306401-.88859-2.136572-.88859h-6.727489zm0 13.414704h-4.642587v-24.0623302h11.370076c2.108153 0 3.913173.7486478 5.415921 2.246802 1.491553 1.4869931 2.237329 3.2813439 2.237329 5.3821938 0 1.8226827-.577847 3.4375984-1.732681 4.8464643-1.132443 1.3865438-2.573187 2.2639728-4.322231 2.6322869l6.744713 8.9545832h-5.80345l-6.609508-8.7863092h-2.657582zm17.007319 0h4.642587v-24.0623302h-4.642587zm10.421063-3.5217354c-2.35531-2.3472513-3.532535-5.1812953-3.532535-8.5012736 0-3.3311393 1.177225-6.1703345 3.532535-8.5184443 2.354448-2.3472513 5.197183-3.5208769 8.527341-3.5208769 3.341354 0 6.190117 1.1736256 8.544565 3.5208769l-3.28021 3.2701829c-1.457106-1.442349-3.212178-2.1635235-5.264355-2.1635235-2.040981 0-3.790025.7211745-5.247992 2.1635235-1.445911 1.4414904-2.169296 3.1920556-2.169296 5.2482614 0 2.0459034.723385 3.7896003 2.169296 5.2319492 1.457967 1.442349 3.207011 2.1626649 5.247992 2.1626649 1.715458 0 3.240597-.5194173 4.575416-1.5591105v-3.5217354h-5.500316v-4.6275363h10.142042v10.1282088l-.672577.6868329c-2.354448 2.3481097-5.203211 3.5217354-8.544565 3.5217354-3.330158 0-6.172893-1.1736257-8.527341-3.5217354zm40.967753-6.8915091c0 2.8735369-1.02049 5.3272473-3.061472 7.361131-2.040982 2.0347423-4.502216 3.0521135-7.383703 3.0521135s-5.342722-1.0173712-7.383703-3.0521135c-2.040982-2.0338837-3.061472-4.4875941-3.061472-7.361131v-13.6490857h4.642587v13.6490857c0 1.5986035.565791 2.9628252 1.699095 4.0918067 1.132444 1.1289815 2.499988 1.6930429 4.103493 1.6930429s2.97191-.5640614 4.104354-1.6930429c1.132443-1.1289815 1.699095-2.4932032 1.699095-4.0918067v-13.6490857h4.641726zm21.446669-13.6490857v4.6275363h-13.9269v5.0980168h9.738152v4.6275363h-9.738152v5.0808459h13.9269v4.6283949h-18.569487v-24.0623302zm21.77736 0-12.076238 19.4339353h11.622399v4.6283949h-19.948226l12.059876-19.4347939h-11.134976v-4.6275363z" fill="currentColor"/><path d="m69.7529069 24.1147423h6.7274887c.8301714 0 1.542362-.2961967 2.1365718-.88859.5830146-.5812323.8749525-1.285236.8749525-2.1128695 0-.8267751-.2919379-1.5367885-.8749525-2.1300404-.5942098-.5923933-1.3064004-.88859-2.1365718-.88859h-6.7274887zm0-10.6476262h6.7274887c.5726805 0 1.0652718-.2017571 1.4803575-.6035543.4038905-.4026558.6054051-.8945998.6054051-1.4758321 0-.5700713-.2015146-1.0620153-.6054051-1.47583208-.4150857-.40265576-.907677-.60355437-1.4803575-.60355437h-6.7274887zm12.144271 13.0283605c-1.502748 1.4990127-3.3086292 2.2476605-5.4167823 2.2476605h-11.3700759v-24.06318867h11.3700759c1.8618574 0 3.4481393.65420828 4.760568 1.96176631 1.3115675 1.3195776 1.9677818 2.90101022 1.9677818 4.74601496 0 1.5651203-.4874243 2.9568154-1.463134 4.1750851 1.5923101 1.5093152 2.3880346 3.3594712 2.3880346 5.550468 0 2.1017085-.7457764 3.8960593-2.2364681 5.3821938zm23.2146581-21.81552817v4.62839482h-13.9269001v5.09715825h9.7381521v4.6283948h-9.7381521v5.080846h13.9269001v4.6283948h-18.5694873v-24.06318867zm23.845899 24.06318867h-5.079202l-1.244396-2.7842486h-9.823408l-1.244396 2.7842486h-5.079202l11.235733-25.11919417zm-14.077606-7.3954726h5.684608l-2.841873-6.3549209z" fill="currentColor"/><path d="m49.6588834 15.7650871c.3728882 10.5720746-14.3609321 17.1047134-22.4602704 19.0896604-10.1032895 2.4760324-23.24652197-1.6569843-26.07461629-13.0455314-1.06527183-4.2884125-.67602133-7.9226168.75094343-10.917208 7.31136443-15.34642137 47.07778086-15.14037152 47.78394326 4.873079z" fill="#dbad21"/><path d="m3.17555828 32.7176707c11.00811802-16.0721287 42.45018032-4.4270568 46.52399232 8.2720211 4.1183526 12.8393811-9.1598693 18.6282571-21.3243924 19.1845175-20.23378873.9251749-34.94738496-12.6347578-25.39013456-27.1726312.0618619-.0949109.12537344-.1889965.19053464-.2839074z" fill="#5c8e8a"/><path d="m39.1174308 30.0912108-.1507532.0872589c-4.0415858 2.2949074-8.4586576 3.8652242-11.7680646 4.6762778-7.2307157 1.7720452-16.0184808.1589558-21.46773976-5.0762481 8.35598046-7.6032323 23.18032416-5.4374468 33.38655756.3127114z" fill="#816c2c"/></g></svg>