<svg height="150" viewBox="0 0 150 150" width="150" xmlns="http://www.w3.org/2000/svg" role="presentation"><path d="m26.9466604 127.954786c-4.354126-4.121284-7.0087783-9.827998-8.1748406-15.721476-1.0999026-5.54485.4300372-11.22011 2.7001371-16.198764 2.2700998-4.9786538 7.0841247-8.3603357 12.3243977-10.8158058 7.8564476-3.6813487 18.1710242-3.4233062 25.9199626-4.3156286 14.8859009-1.714089 30.0695197 3.0913074 44.8396418.5679027 2.629842-.4523867 5.87166-1.7970958 5.780691-4.474063-.070294-2.0544167-2.166725-3.3742238-4.060543-4.1544871-8.1707055-3.3659231-17.2759148-3.7021004-26.0875411-3.0504975-8.8074914.6516028-17.5446882 2.2411818-26.3728544 2.5607578-8.8281662.3154255-17.9581854-.7304593-25.6988539-5.0053062-7.7406685-4.2706965-13.8562927-12.2393431-14.108526-21.1044624-.2191536-7.6283189 3.9075489-14.9536633 9.7337251-19.855211 5.8303112-4.9015477 13.1988321-7.6324693 20.6335126-9.2303489 14.8941709-3.1999097 30.3300231-2.1747765 45.5260469-1.1330419 4.0357331.2739222 8.1872455.5810471 11.8384258 2.3283389 3.651181 1.7514421 6.74414 5.3082807 6.715196 9.36731-.02481 4.3163502-3.556077 7.9603459-7.554595 9.5374739-4.0026534 1.5729776-8.422939 1.5231736-12.7191754 1.5439252-12.6282059.0622551-25.2522768.9172245-37.7688385 2.5607578-2.4148239.319576-5.3795991 1.1745453-5.7806915 3.585891-.2770431 1.676736.9965284 3.2995177 2.5471431 3.9884736 1.5464797.6889559 3.303843.6640539 4.9991817.6267008 14.2036304-.3112752 28.4072608-.6267008 42.6150262-.9379761 7.7696134-.1743141 15.6798154-.3278766 23.1558454 1.8136972 7.476031 2.1374234 14.588183 6.9601147 17.569498 14.1650993 3.440298 8.2965232.595436 18.3320375-5.511918 24.9020206-6.111489 6.5741334-14.94379 10.0479652-23.805036 11.3719227-8.8571114 1.323957-17.8713514.697257-26.8152968.228268-8.9439454-.464837-18.0119401-.755361-26.7491369 1.220199-1.8317928.410884-3.8827391 1.137193-4.5484697 2.892785-.6946754 1.834449.599571 3.94282 2.3403944 4.835143 1.7408234.892322 3.7876348.884021 5.7434768.850819 14.410379-.219968 28.824893-.444086 43.2352721-.664054 4.4326901-.066406 9.3367681.033202 12.6158011 3.029745 3.415487 3.125204 3.816579 8.736459 1.604369 12.81209-2.208075 4.075631-6.533256 6.682042-11.036241 7.727927-6.3182383 1.469219-13.4634707.510492-19.9388376.319576-8.9067306-.257321-17.6480624 1.2285-26.5134434 1.743141-10.3539711.601799-21.6507158-.771962-29.1929056-7.918842z" fill="{{ colour }}" fill-rule="evenodd"/></svg>