<svg height="150" viewBox="0 0 150 150" width="150" xmlns="http://www.w3.org/2000/svg" role="presentation"><path d="m123.499166 25.482772c-1.755593-3.7896726-5.568152-5.4007943-9.103028-6.3690392-6.727581-1.8421801-13.682836-2.4866288-20.567025-1.9081968-1.6345179.1367489-3.3387858.3740946-4.6982519 1.4633701-1.1581125.9289491-1.9411545 2.3828882-2.5860126 3.8588329-3.349314 7.6610801-3.7204365 16.617345-4.0218089 25.2529573-.5593157 15.9776117.6314632 26.5878539 1.8474813 42.5135954.7159241 9.3806579.5016446 24.6536753 5.7039387 31.7331793 6.4222602 8.73621 17.6638474 11.94745 27.0748284 11.101808 10.237451-.919518 11.028389-7.255549 8.880617-17.712908-5.390487-26.2542104-3.317729-53.6134146-1.58056-80.2527224.214514-3.2882601.385598-6.7934322-.950179-9.6808766zm-58.0730255 0c-1.7555933-3.7896726-5.5681524-5.4007943-9.1030276-6.3690392-6.7275808-1.8421801-8.8104243-1.0232587-15.6946136-.4448267-1.6345178.1367488-8.6270651.4448267-12.4868908 6.8138659-3.7713595 6.2230624-3.3902218 13.662312-3.6929103 22.2979243-.5593157 15.9776117-.7766375 17.8616142.4393806 33.7873557.7159241 9.3806579 1.2198395 37.429382 6.4234496 44.508887 6.4222603 8.736209 12.4260861 8.736209 21.3418304 7.05234 10.1732319-1.921364 10.1159531-8.158323 12.7727817-17.712908 3.3938099-12.204944-.7869901-53.6134146.9501786-80.2527224.214514-3.2882601.3855988-6.7934322-.9501786-9.6808766z" fill="{{ colour }}" fill-rule="evenodd"/></svg>