<svg height="150" viewBox="0 0 150 150" width="150" xmlns="http://www.w3.org/2000/svg" role="presentation"><path d="m44.6071929 11.1087475c9.3566764-2.62258767 18.0040163-2.86882977 36.1077625-.3448805 13.8341177 1.9252731 27.2885116 9.4943783 37.5280476 20.6059195 9.747922 10.5748477 16.286488 22.3708819 18.859936 34.8897497.620152 3.016806.906549 6.3514933.897061 9.9574165-.015223 5.5545716-.715977 11.4552869-1.894815 17.5402096-.508335 2.623926-.857918 4.1594504-1.626774 7.3512297-1.240794 5.150948-6.724973 14.652681-11.251384 20.333104-8.278282 10.392777-18.829765 15.860274-34.4576216 18.884218-12.326523 2.382882-23.471872 2.307382-33.3485618-.776314-7.7319425-2.416935-16.2168589-6.760288-21.8145798-11.356549-6.9048391-5.670011-12.8055909-12.942581-15.796729-19.950817-2.8033449-6.568237-3.3017495-22.8593472-1.449628-30.076777 3.0088513-11.7365353 9.7770113-21.9399367 18.9014792-27.2503972 5.3085841-3.0895067 20.7075693-4.6398215 31.2735134-4.1892643 4.0954907.1753386 10.2086441 2.084106 17.8099243 5.0544411 5.4516874 2.1303435 11.8188594 7.1735423 13.5834292 11.4577347 2.0919921 5.0863154 2.9159751 8.3026792 2.6166721 12.482928-.406886 5.6828103-3.2599893 11.4277993-9.1733583 17.4620734-3.5645809 3.6342837-16.1325466 7.5524793-21.1240839 6.5686191-9.6424134-1.9040114-16.6942187-6.6129845-19.5596032-12.3683543-2.7625887-5.5488956-.926479-10.9621231 4.7081121-12.877569 1.8794847-.6387218 3.557167-.3664575 5.6802533.6258022.1624195.0759094.2753626.1292064.4126817.1968255l.1812099.0903814c.2023636.1019837.4823678.2458656.9676295.4954687 1.8184596.9353575 2.7979752 1.3223107 3.9791962 1.4648509 2.8520023.3447643 5.4448286-3.2667298 4.6373852-6.375069-.7626302-2.9358266-3.6862149-5.3055869-7.4527415-6.3489131-7.6345064-2.1181156-16.6196501 1.1362086-22.2138994 7.7026813-4.1010206 4.8137362-4.2546624 8.7758417-2.2391951 20.1375843.1126394.6349789.1955457 1.1080528.2756879 1.575913.507727 2.9640441 5.6842445 10.5337293 8.9824908 12.9015643 3.9969657 2.869449 7.6022254 5.166877 10.6676687 6.66093 6.3085802 3.078274 10.4641542 4.025461 15.0069637 3.715644 1.0750199-.073316 2.1971873-.212763 3.6235972-.439322.7794088-.123795 3.659214-.618363 4.0904881-.689799.9851148-.163173 1.8647198-.299466 2.7492475-.423439 9.6037366-1.346029 20.0487176-10.220456 25.8002706-22.0097563 6.136608-12.568908 6.25763-24.4178031-.346227-34.8475711-3.886867-6.1382305-10.4336243-11.7788649-18.4995462-16.4905522-4.5817921-2.6765457-8.3529202-4.2600628-12.2539833-5.2049088-3.2772892-.7937665-6.2774207-1.130714-12.3660641-1.5118952-.5430216-.033996-2.5516417-.1572193-2.5186682-.1551842-1.054917-.065108-1.8836821-.1177752-2.7181147-.1734061-2.8860819-.1926972-5.9340042.0816003-13.3054683 1.0225278-.0125666.0016041-.0125666.0016041-.0251334.0032082-2.577265.3289724-4.6386459.5780897-6.3594005.7549782l-.8328032.0824604c-2.8211414.267792-4.6885693.3182757-6.5415566.1923229-1.0502846-.0714359-1.987775-.1033198-4.049102-.1511162-1.224056-.0283824-1.8824862-.045216-2.5121546-.0674158l-.3786446-.0140992-.1947866-.0077863c-8.0260664-.3272717-12.4522968-1.8281435-14.2520184-6.3087036-1.6883226-4.2016157 2.2234393-7.6998746 9.109996-10.969563 1.0330882-.4916491 1.9888883-1.0038677 3.4343767-1.821314.0047757-.0027008.0164872-.0093377.0341243-.0193366l.1688449-.0957435c.3356767-.1903497.9876348-.5599971 1.2193018-.6903391 2.7815254-1.5649593 4.6041309-2.4167821 6.7978227-3.0421575.8871442-.2531008 2.646181-.7895773 4.4899818-1.3545666l.9253199-.2836909c2.1585558-.6619831 4.253923-1.3049593 5.0361705-1.5242158z" fill="{{ colour }}"/></svg>