<svg height="268" viewBox="0 0 223 268" width="223" xmlns="http://www.w3.org/2000/svg" role="presentation"><g fill="none" fill-rule="evenodd" transform="translate(16 8)"><path d="m13.0220591 174.663326c-1.374087 3.529558-2.0301572 7.448091-2.5264335 11.224094-1.2642727 9.626068-2.0125588 19.461368-.1795042 28.996161 1.8330545 9.53409 6.5100187 18.835077 14.3582235 24.577016 8.0600902 5.89781 18.4136104 7.451602 28.3152024 8.827758 12.8905128 1.79181 29.8800566 7.554111 41.5070007-.337018 11.857836-8.047 16.165936-24.284934 16.814263-37.517092.494165-10.082447.22878-21.02499-5.92223-29.041799-.032381-.041425-.068282-.080042-.100663-.120765-20.3733742 1.094606-40.8086945 1.050372-61.2010747.280848-10.6928183-.403719-22.233178-1.383176-31.0647842-6.889203z" fill="#b0aba6"/><path d="m73.9617612 133.69096c-16.4918596-4.440208-28.2821173-11.921299-35.814958-21.376752-12.9200781 1.935745-25.4389117 8.326443-32.60148089 19.148222-7.81723157 11.811067-7.66377309 29.122543 2.34340963 39.155841 1.56907782 1.573451 3.29724566 2.900458 5.13381986 4.045617.987625-2.537463 2.3441136-4.874821 4.2905022-6.806354 3.8019692-3.772492 9.2349627-5.366305 14.5053466-6.352784 21.2737105-3.981021 43.9461458-.025978 62.601207 10.92148 4.0553868 2.379486 7.9854724 5.140223 10.8680984 8.845311 5.199991-.279444 10.397165-.614355 15.5873-1.052478 15.500011-1.30805 33.760867-5.425985 39.411377-19.881939 5.915895-15.205817-4.153938-24.764482-19.263968-31.040032-22.91459 7.135647-49.5839849 9.099478-67.0606538 4.393868" fill="#dbad21"/><path d="m94.4199595 172.426371c-18.655765-10.947459-41.3274964-14.903204-62.601207-10.92148-5.2710878.986479-10.7033774 2.580292-14.5053466 6.352784-1.9470925 1.93083-3.3028771 4.268891-4.291206 6.806353 8.8316062 5.505325 20.3719659 6.484782 31.0647842 6.888501 20.3923802.769524 40.8269966.813758 61.2010739-.280848-2.882626-3.70579-6.8134155-6.465825-10.8680985-8.84531" fill="#ab871a"/><path d="m38.1463809 43.3840178c-13.6444304 24.9877566-14.2237714 51.0764661 0 68.9306812 1.181208-.176934 2.3645278-.330699 3.5485515-.432506 12.3477766-1.066521 24.6913295 1.471644 36.824405 3.995064 11.3615595 2.362635 41.7062156 4.782141 62.5033596 13.419624 15.286718-4.760375 28.905806-11.81879 36.998278-20.749057 18.039115-19.9058104 16.427801-52.7566113.399133-74.3074894-16.027965-21.5508781-43.394259-32.57486776-70.250198-34.1525319-26.8559387-1.57766414-56.3790987 18.3084585-70.0235291 43.2962151z" fill="#db592b"/><path d="m41.6949324 111.881842c-1.1840237.102509-2.3673435.255572-3.5485515.432506 7.5328406 9.455453 19.3230983 16.936544 35.8156619 21.376752 17.4759649 4.70561 44.1453602 2.74178 67.0606542-4.393868-20.797144-8.638185-51.1418001-11.056989-62.5033596-13.420326-12.1330755-2.52342-24.4766284-5.060883-36.824405-3.995064" fill="#b54a24"/></g></svg>