<svg class="stairs icon" height="150" viewBox="0 0 150 150" width="150" xmlns="http://www.w3.org/2000/svg" role="presentation"><path d="m65.0733967 14.1613241c.8508136-.1771315 1.7313067-.2306052 2.5788225-.0467895 4.082586.8856575 3.9572724 5.5980237 3.3274065 9.1707325l-4.3365109 24.594541c-.1055273.5882103-.1451 1.1964731-.0395728 1.7846834.6199727 3.4724457 4.1386474 3.3487879 6.8559744 2.8909197l29.2013726-4.8928398c.62327-.1069473 1.269624-.0902368 1.866513.1236578 2.24905.805447 1.981934 3.0647091 1.602695 4.8928398l-6.8262945 33.0366949c-.1483977.7118681.4287045 1.3669204 1.1443115 1.3000783l26.856688-2.4998935c.718905-.0668421 1.451-.0334211 2.14682.1637631 2.694243.775368 2.651373 2.9811564 2.483189 4.899524-.703615 8.0731157-2.889564 18.0996642-7.973452 28.2909542-3.589272 7.195144-7.516574 15.352073-12.944575 17.834827-5.566185 2.54596-16.8673287-12.123218-20.0463375-15.79619-6.0348403-6.974971-12.0235125-14.020125-18.2694073-20.8079379-5.8072972-6.3098917-11.2485467-12.990757-16.8217052-19.5178855-6.305254-7.382707-12.6858381-12.700019-18.991092-20.0860682-6.305254-7.382707-17.3688173-16.9367315-18.8536226-24.1968055-.8626902-4.218193 14.6119508-10.5405583 22.4909965-13.5197562 5.2831741-1.9976557 13.4657677-4.5373389 24.5477808-7.6190496z" fill="{{ colour }}" fill-rule="evenodd"/></svg>