<svg height="150" viewBox="0 0 150 150" width="150" xmlns="http://www.w3.org/2000/svg" role="presentation"><path d="m61.8489819 28.4748412c5.7587043-.7118874 11.7986706-.7541922 17.2754713.7895678 5.4768008 1.5437599 11.5872982 6.4132308 13.1583011 10.7374362.9941487 2.7357702-.0327919 13.1464063-7.865769 21.6903074-.329673.3595942-.6473872.7071314-.954349 1.0431442 6.1809968-3.0869054 13.5747924-2.4422329 14.9932003-2.1199523 6.5633364 1.4911257 13.0313404 3.832486 18.2311244 7.8161294 5.199577 3.9840651 9.020538 9.7809663 9.29622 16.0115229.115556 2.6057279-.37865 5.204077-1.042887 7.7391803-.786395 3.0008034-1.840631 5.9973904-3.751421 8.5314399-2.903947 3.850827-7.661319 6.349459-12.666516 7.177346-5.00499.827677-10.2249963.073366-14.9505905-1.658094-3.1369147-1.148966-6.1085439-2.767848-8.592571-4.859809-.0018073.216569-2.4647142-2.1092543-4.8154392-4.710618.3388163 1.4603655.5139365 2.948334.505557 4.446303-.0284754 4.900948-1.9629948 9.670491-4.5966028 14.016752-.7111674 1.173159-1.5221441 2.368119-2.8113999 3.090141-1.2019492.673375-9.3417205 2.488095-10.7681236 2.618915-4.9806006.456785-10.3937297.085361-17.8478779-2.618915-7.4541481-2.704276-10.6525063-8.97597-14.3656926-14.682213-3.7131862-5.706243-5.2897465-9.6745712-5.2795675-10.0041943.1248072-4.0450989.6649638-8.1634697 2.6191908-11.8450345 1.6141126-3.0406871 4.2602233-5.7580086 7.7552423-7.2206227 2.6329585-1.1021966 5.5595926-1.4344409 8.5079843-1.3473808-1.5130793-.3935152-2.9011615-.8133329-4.1510167-1.2106133-5.814529-1.4963494-6.9283767-5.9238999-6.7564112-11.8042649.0962493-3.2979497 1.4867313-6.4821141 2.8628829-9.6066507 1.7312046-3.9303333 3.4797341-7.8911187 6.1822013-11.4824667 2.7024673-3.5913479 6.4572606-6.8325873 11.3088685-8.6429403 2.6697425-.9961683 5.5905888-1.5326367 8.5199907-1.8944156zm14.5964726 41.2847808-.0650561.050676c-2.742558 2.0800084-5.6702613 3.1091031-11.3896897 4.2381679-3.655173.7215629-7.1144582.9072814-10.3183607.7642938 5.9675375 1.5638435 11.5847643 4.1042916 16.1306036 7.7539301 1.4245642 1.1436258 2.7352183 2.402328 3.9042075 3.7515293-.8480798-5.2368714-.3806547-11.9338037 1.7382954-16.5585971z" fill="{{ colour }}" fill-rule="evenodd"/></svg>