<svg class="three icon" height="150" viewBox="0 0 150 150" width="150" xmlns="http://www.w3.org/2000/svg" role="presentation"><path d="m117.983579 29.1464377c1.825252 2.0456006 3.076757 5.0399435 2.697615 7.990252-.624075 4.8638057-5.036219 7.4818542-8.938365 9.0831071-9.753689 3.9991292-19.8529679 6.6451996-29.9287601 9.2832637 11.6561112.6965451 23.2115651 3.7709506 34.0120901 9.047079 2.804982 1.3730743 5.83141 3.2225214 6.841338 6.6331901 1.214598 4.0952043-1.083743 8.5426843-3.892081 11.3048455-9.451717 9.2992763-23.436366 7.0535191-34.9247151 12.1334939 8.0425154 2.1696977 16.0850308 4.3433985 24.1275461 6.517099 3.25123.876686 6.582985 1.793404 9.361126 3.995126 2.774785 2.201723 4.918785 5.996692 4.563129 9.951787-.466379 5.204072-4.784575 8.538681-8.784024 10.69637-21.8224948 11.769208-47.2049016 11.288833-70.3762038 4.059176-4.2510918-1.325037-8.6397486-2.994343-11.7467028-6.701244-2.2547227-2.686101-3.6907663-6.749281-2.6506413-10.34009 1.1072299-3.818989 4.5094455-5.872595 7.6533074-7.381776 10.2972381-4.943869 21.1548017-8.2184308 32.1868378-9.707596-11.7970313 1.7894001-24.1409672-2.2537635-33.5222242-10.9725855-3.5733329-3.3225998-6.9923246-8.534678-5.5294391-13.6426748.9663098-3.3786436 3.7746474-5.4522661 6.4689069-7.0014783 10.0556607-5.7725167 21.3225638-8.1463742 32.4820992-8.2184306-9.3980333-.6204855-18.7256064-2.7141236-27.6673267-6.2088581-2.8251139-1.1048645-5.6737145-2.38987-7.9720554-4.6476366-2.2983408-2.2537634-3.9893829-5.6564258-3.7914236-9.1991979.3153928-5.6684353 5.002666-9.4033577 9.3342836-11.7652057 9.3812571-5.1200062 19.564417-8.1383679 29.8582999-8.8869536 2.2043941-.1601253 4.4691825-.3762945 6.6299585.2722129 1.4461093.4363415 2.7848509 1.1569053 4.2745784 1.4131057 5.2241121.8926985 10.488487.8606735 15.7159542 2.0335912 5.811279 1.3090243 11.521902 3.2745622 17.021143 5.8685919 2.328538 1.1008614 4.670497 2.3498387 6.495749 4.3914361z" fill="{{ colour }}" fill-rule="evenodd" transform="matrix(0 1 -1 0 150.5 -.5)"/></svg>