<svg height="150" viewBox="0 0 150 150" width="150" xmlns="http://www.w3.org/2000/svg" role="presentation"><path d="m121.682464 21.9978835c-16.912026-5.695651-35.0186632-4.2323906-52.5522114-5.0760971-15.1023598-.7267187-30.4942505-1.6478374-45.5624768 0-2.5397729 0 4.1005991 10.489338 6.9142302 15.3002658 4.824967 8.2391875 26.5561949 42.8711615 26.5561949 45.6627949s-5.237528 10.397773-8.394467 15.3640142c-5.3250022 8.3831367-10.653736 16.7700607-15.9824698 25.1569857l-8.3923826 13.213005c-.6306414.992491-1.7128073 4.049513 5.6906996 3.140362l66.3255706-.011365c10.2395273.117432 29.8109523.945795 30.6663403-1.227355.303504-2.391574-.817221-5.728918-3.362177-10.012033-4.334387-7.792213-7.955663-13.554606-10.863828-17.287179-4.362248-5.598859-11.966139-18.4765767-15.4813125-22.8177761-2.7949731-3.4509884-3.6756322-6.8148498-1.4814477-10.8795156 2.8210944-5.2200461 6.7318182-10.0120333 9.9372672-15.0085796 3.336056-5.2011055 13.112865-21.6946329 14.769698-24.6683167.429135-.7689908 2.373302-3.6479712 3.604732-6.7239345.518693-1.2955412-1.072178-3.6807983-2.39196-4.125276z" fill="{{ colour }}" fill-rule="evenodd"/></svg>